HIERARCHY
ROOT joint_0
{
	OFFSET 0.000000 0.000000 0.000000
	CHANNELS 6 Xposition Yposition Zposition Zrotation Yrotation Xrotation 
	JOINT joint_1
	{
		OFFSET 8.185791 -2.713684 100.414917
		CHANNELS 3 Zrotation Yrotation Xrotation
		JOINT joint_2
		{
			OFFSET -4.376465 -1.111145 91.934082
			CHANNELS 3 Zrotation Yrotation Xrotation
			JOINT joint_3
			{
				OFFSET -6.985840 -1.054016 91.669922
				CHANNELS 3 Zrotation Yrotation Xrotation
				JOINT joint_4
				{
					OFFSET 0.150391 -4.451904 123.526001
					CHANNELS 3 Zrotation Yrotation Xrotation
					JOINT joint_5
					{
						OFFSET 19.754150 -8.123901 80.916992
						CHANNELS 3 Zrotation Yrotation Xrotation
						End Site
						{
							OFFSET 0.000000 0.000000 0.000000
						}
					}
				}
				JOINT joint_6
				{
					OFFSET -6.477539 -28.517334 68.237061
					CHANNELS 3 Zrotation Yrotation Xrotation
					JOINT joint_7
					{
						OFFSET -20.564453 -115.426208 -21.139038
						CHANNELS 3 Zrotation Yrotation Xrotation
						JOINT joint_8
						{
							OFFSET 18.981934 -19.826172 -267.898926
							CHANNELS 3 Zrotation Yrotation Xrotation
							JOINT joint_9
							{
								OFFSET 11.562744 -19.325867 -235.478027
								CHANNELS 3 Zrotation Yrotation Xrotation
								End Site
								{
									OFFSET 0.000000 0.000000 0.000000
								}
							}
						}
					}
				}
				JOINT joint_10
				{
					OFFSET 7.033936 23.504700 70.088989
					CHANNELS 3 Zrotation Yrotation Xrotation
					JOINT joint_11
					{
						OFFSET 36.629639 112.486816 -14.036987
						CHANNELS 3 Zrotation Yrotation Xrotation
						JOINT joint_12
						{
							OFFSET 41.355225 -7.048523 -266.019897
							CHANNELS 3 Zrotation Yrotation Xrotation
							JOINT joint_13
							{
								OFFSET 5.858887 29.785156 -234.603027
								CHANNELS 3 Zrotation Yrotation Xrotation
								End Site
								{
									OFFSET 0.000000 0.000000 0.000000
								}
							}
						}
					}
				}
			}
		}
	}
	JOINT joint_14
	{
		OFFSET -8.917725 -79.985535 -99.035034
		CHANNELS 3 Zrotation Yrotation Xrotation
		JOINT joint_15
		{
			OFFSET -32.739502 -31.478882 -502.570984
			CHANNELS 3 Zrotation Yrotation Xrotation
			JOINT joint_16
			{
				OFFSET 7.393066 -29.352966 -399.008011
				CHANNELS 3 Zrotation Yrotation Xrotation
				JOINT joint_17
				{
					OFFSET 178.013916 -26.060303 -71.875002
					CHANNELS 3 Zrotation Yrotation Xrotation
					End Site
					{
						OFFSET 0.000000 0.000000 0.000000
					}
				}
			}
		}
	}
	JOINT joint_18
	{
		OFFSET 1.900879 81.159851 -98.481018
		CHANNELS 3 Zrotation Yrotation Xrotation
		JOINT joint_19
		{
			OFFSET -15.120850 31.602051 -503.400024
			CHANNELS 3 Zrotation Yrotation Xrotation
			JOINT joint_20
			{
				OFFSET -16.653076 23.887695 -399.091988
				CHANNELS 3 Zrotation Yrotation Xrotation
				JOINT joint_21
				{
					OFFSET 179.618164 -1.217651 -72.592001
					CHANNELS 3 Zrotation Yrotation Xrotation
					End Site
					{
						OFFSET 0.000000 0.000000 0.000000
					}
				}
			}
		}
	}
}
MOTION
Frames: 10
Frame Time: 0.016667
-2939.504883 598.040405 1094.477051 4.739089 -3.446716 -0.466069 3.159772 4.988627 -0.622922 3.141535 -1.026568 0.265984 3.131722 1.017579 -0.177005 0.223164 1.329999 -0.449177 0.000000 0.000000 0.000000 -4.532492 1.631960 0.853820 0.095997 0.626573 1.726737 0.117760 -1.513355 -0.309186 0.000000 0.000000 0.000000 0.701352 3.165238 -0.680492 -0.672528 2.035837 2.460388 -1.588166 -7.350627 -6.106414 0.000000 0.000000 0.000000 -0.343341 0.880624 -1.284053 -1.119308 10.035105 1.782317 0.109935 -5.666591 -0.785979 0.000000 0.000000 0.000000 2.162038 1.845484 0.100416 2.507022 7.505466 0.503883 1.917803 -4.911614 0.736295 0.000000 0.000000 0.000000 
-2939.594238 598.210205 1094.442017 4.747317 -3.471853 -0.461833 3.160063 4.977691 -0.628686 3.141655 -1.024674 0.265633 3.131765 1.016032 -0.177271 0.221112 1.325249 -0.442253 0.000000 0.000000 0.000000 -4.531688 1.638411 0.879848 0.095414 0.637383 1.729991 0.117448 -1.509187 -0.308919 0.000000 0.000000 0.000000 0.704816 3.177770 -0.672967 -0.674976 2.052656 2.452308 -1.584115 -7.339769 -6.076780 0.000000 0.000000 0.000000 -0.342367 0.888988 -1.306555 -1.122370 10.069854 1.795750 0.111192 -5.679494 -0.787385 0.000000 0.000000 0.000000 2.162318 1.851707 0.088592 2.508611 7.538719 0.503355 1.918868 -4.913761 0.736669 0.000000 0.000000 0.000000 
-2939.683838 598.382019 1094.406006 4.749793 -3.496319 -0.457946 3.160447 4.967335 -0.636216 3.142020 -1.025542 0.267115 3.131967 1.015664 -0.177597 0.219300 1.322847 -0.435506 0.000000 0.000000 0.000000 -4.530035 1.645569 0.906528 0.094758 0.649206 1.733104 0.117090 -1.505094 -0.309553 0.000000 0.000000 0.000000 0.708433 3.192231 -0.665727 -0.677469 2.070824 2.445640 -1.580105 -7.330305 -6.046847 0.000000 0.000000 0.000000 -0.339533 0.896218 -1.329471 -1.123689 10.103699 1.810542 0.113926 -5.691297 -0.788039 0.000000 0.000000 0.000000 2.164702 1.857634 0.077445 2.512371 7.572116 0.502371 1.922057 -4.915546 0.737900 0.000000 0.000000 0.000000 
-2939.766113 598.558838 1094.369019 4.744214 -3.517506 -0.455435 3.160789 4.949655 -0.641872 3.142217 -1.023315 0.267426 3.131986 1.013800 -0.178495 0.218130 1.326034 -0.429454 0.000000 0.000000 0.000000 -4.525424 1.653971 0.931686 0.094213 0.662069 1.738900 0.116351 -1.497678 -0.312113 0.000000 0.000000 0.000000 0.715083 3.208923 -0.656060 -0.679946 2.091695 2.438741 -1.575708 -7.320493 -6.016019 0.000000 0.000000 0.000000 -0.333840 0.899083 -1.352198 -1.122541 10.137903 1.827200 0.119005 -5.702777 -0.787709 0.000000 0.000000 0.000000 2.169852 1.862178 0.068136 2.518950 7.603394 0.499827 1.927991 -4.916632 0.740240 0.000000 0.000000 0.000000 
-2939.845703 598.737793 1094.332031 4.731518 -3.537159 -0.453655 3.161276 4.929799 -0.647863 3.142572 -1.021930 0.267778 3.132210 1.012350 -0.178993 0.217196 1.333147 -0.423032 0.000000 0.000000 0.000000 -4.518728 1.663278 0.956116 0.093765 0.675706 1.746739 0.115356 -1.488509 -0.316688 0.000000 0.000000 0.000000 0.722193 3.227721 -0.645735 -0.682558 2.114493 2.432810 -1.571290 -7.312169 -5.984528 0.000000 0.000000 0.000000 -0.325610 0.899593 -1.374858 -1.119039 10.171824 1.844919 0.126253 -5.713482 -0.786398 0.000000 0.000000 0.000000 2.177536 1.866183 0.060048 2.528130 7.634044 0.496279 1.936435 -4.917610 0.743591 0.000000 0.000000 0.000000 
-2939.925293 598.920715 1094.288940 4.715344 -3.555198 -0.451556 3.161047 4.910073 -0.655558 3.142319 -1.023341 0.269166 3.131779 1.012803 -0.179997 0.216336 1.344046 -0.415651 0.000000 0.000000 0.000000 -4.514522 1.673371 0.981129 0.093089 0.690231 1.752346 0.114554 -1.481011 -0.319974 0.000000 0.000000 0.000000 0.733637 3.248290 -0.635187 -0.685199 2.138039 2.428660 -1.567169 -7.305129 -5.954256 0.000000 0.000000 0.000000 -0.316317 0.897770 -1.398860 -1.114813 10.206017 1.864227 0.134208 -5.724875 -0.784906 0.000000 0.000000 0.000000 2.186635 1.868489 0.051516 2.538845 7.665062 0.492596 1.946445 -4.917402 0.747579 0.000000 0.000000 0.000000 
-2940.004883 599.106628 1094.235962 4.700380 -3.559568 -0.445217 3.159659 4.877384 -0.669372 3.141253 -1.028114 0.270088 3.130743 1.016332 -0.180107 0.214555 1.361379 -0.402454 0.000000 0.000000 0.000000 -4.521679 1.686638 1.005322 0.092076 0.706343 1.754775 0.114482 -1.479821 -0.318961 0.000000 0.000000 0.000000 0.747652 3.271949 -0.623836 -0.686921 2.162181 2.432444 -1.564344 -7.300517 -5.933511 0.000000 0.000000 0.000000 -0.306429 0.881374 -1.428462 -1.111288 10.239779 1.885486 0.141413 -5.736286 -0.783720 0.000000 0.000000 0.000000 2.195041 1.854619 0.037154 2.549785 7.698126 0.490157 1.956821 -4.915368 0.751725 0.000000 0.000000 0.000000 
-2940.083496 599.296570 1094.175049 4.683770 -3.550584 -0.434453 3.156214 4.830909 -0.688482 3.138403 -1.032894 0.269392 3.128116 1.019156 -0.179399 0.212738 1.385608 -0.386881 0.000000 0.000000 0.000000 -4.532941 1.702964 1.028348 0.090830 0.724824 1.756067 0.114878 -1.483147 -0.315897 0.000000 0.000000 0.000000 0.769088 3.299608 -0.611608 -0.687443 2.187255 2.444163 -1.562547 -7.297253 -5.922240 0.000000 0.000000 0.000000 -0.295093 0.850285 -1.463764 -1.107625 10.273587 1.908250 0.148724 -5.747802 -0.782509 0.000000 0.000000 0.000000 2.203965 1.826043 0.017062 2.561996 7.731620 0.488256 1.968567 -4.911643 0.756435 0.000000 0.000000 0.000000 
-2940.169189 599.493347 1094.104004 4.664619 -3.581317 -0.436897 3.155880 4.834247 -0.691795 3.137476 -1.048485 0.267721 3.127885 1.032785 -0.176883 0.211380 1.411605 -0.372642 0.000000 0.000000 0.000000 -4.548242 1.714088 1.054257 0.089263 0.739242 1.749762 0.115373 -1.486265 -0.310320 0.000000 0.000000 0.000000 0.784577 3.321614 -0.604055 -0.692086 2.210845 2.439607 -1.559542 -7.297352 -5.888819 0.000000 0.000000 0.000000 -0.285254 0.861743 -1.486402 -1.102377 10.308290 1.933054 0.157872 -5.762647 -0.781050 0.000000 0.000000 0.000000 2.215323 1.839177 0.013383 2.574800 7.768554 0.485391 1.980599 -4.912077 0.761217 0.000000 0.000000 0.000000 
-2940.366943 599.698669 1094.019043 4.629764 -3.715058 -0.459090 3.174742 4.963084 -0.669726 3.153601 -1.089653 0.267218 3.145331 1.070836 -0.173136 0.211966 1.447656 -0.363365 0.000000 0.000000 0.000000 -4.600810 1.709018 1.091970 0.087176 0.736735 1.720641 0.115656 -1.484414 -0.300733 0.000000 0.000000 0.000000 0.768973 3.314193 -0.685938 -0.670923 2.163532 2.488162 -1.542132 -7.231676 -5.820493 0.000000 0.000000 0.000000 -0.275032 0.972303 -1.489549 -1.090516 10.354664 1.957788 0.175035 -5.784054 -0.777345 0.000000 0.000000 0.000000 2.235362 1.957772 0.033100 2.590699 7.811352 0.486555 1.995285 -4.922131 0.766962 0.000000 0.000000 0.000000 
